<?xml version="1.0" encoding="UTF-8"?>
<!DOCTYPE svg PUBLIC "-//W3C//DTD SVG 1.1//EN" "http://www.w3.org/Graphics/SVG/1.1/DTD/svg11.dtd">
<!-- Creator: CorelDRAW 2018 (64 Bit Versão de avaliação) -->
<svg xmlns="http://www.w3.org/2000/svg" xml:space="preserve" width="400mm" height="240mm" version="1.1" shape-rendering="geometricPrecision" text-rendering="geometricPrecision" image-rendering="optimizeQuality" fill-rule="evenodd" clip-rule="evenodd"
viewBox="0 0 40000 24000"
 xmlns:xlink="http://www.w3.org/1999/xlink">
 <g id="Camada_x0020_1">
  <metadata id="CorelCorpID_0Corel-Layer"/>
  <rect fill="none" x="-0.01" y="-0.01" width="40000.02" height="24000.02"/>
  <path fill="#222020" fill-rule="nonzero" d="M8751.22 1219.84l0 2064.72c0,180.04 7.38,374.47 14.27,493.76l-396.49 0 -17.83 -277.69 -7.38 0c-104.53,194.8 -316.67,317.17 -572.72,317.17 -417.76,0 -749.69,-356.64 -749.69,-897.27 -3.44,-587.35 364.02,-936.62 785.72,-936.62 241.29,0 414.32,100.6 493.77,230.35l7.38 0 0 -994.42 442.97 0zm-442.97 1535.04l-10.82 -115.48c-39.97,-172.66 -180.54,-313.23 -381.86,-313.23 -285.07,0 -443.34,252.11 -443.34,580.1 0,320.61 158.27,554.89 439.41,554.89 180.04,0 338.44,-122.74 382.22,-313.73 10.45,-39.47 14.39,-82.76 14.39,-129.62l0 -262.93z"/>
  <g>
   <path fill="#222020" fill-rule="nonzero" d="M9697.44 1533.44c0,133.19 -97.16,237.72 -251.99,237.72 -147.95,0 -244.73,-104.53 -244.73,-237.72 0,-137.13 100.6,-241.29 248.17,-241.29 151.39,0 245.1,104.16 248.55,241.29zm-471.63 489.71l446.54 0 0 1754.93 -446.54 0 0 -1754.93zm0 1754.93l0 -1754.93 0 1754.93z"/>
  </g>
  <path fill="#222020" fill-rule="nonzero" d="M11509.68 3356.62c0,158.4 6.88,313.23 25.08,421.7l-399.93 0 -28.65 -194.8 -10.82 0c-108.1,137.13 -292.08,234.28 -519.35,234.28 -352.71,0 -550.95,-255.92 -550.95,-522.3 0,-443.47 393.04,-666.92 1041.64,-663.36l0 -28.65c0,-115.48 -47.35,-306.34 -357.13,-306.34 -172.67,0 -353.08,54.23 -472,129.74l-86.34 -288.02c129.26,-79.45 356.65,-154.96 633.85,-154.96 562.26,0 724.6,356.65 724.6,738.38l0 634.33zm-432.65 -435.96c-313.6,-7.38 -612.56,61.12 -612.56,327.99 0,172.66 111.54,251.98 252.47,251.98 176.6,0 305.98,-115.35 345.83,-241.16l14.26 -97.65 0 -241.16z"/>
  <g>
   <path fill="#222020" fill-rule="nonzero" d="M13194.26 1533.44c0,133.19 -96.78,237.72 -252.11,237.72 -147.94,0 -244.73,-104.53 -244.73,-237.72 0,-137.13 100.72,-241.29 248.18,-241.29 151.88,0 245.1,104.16 248.66,241.29zm-471.63 489.71l446.91 0 0 1754.93 -446.91 0 0 -1754.93zm0 1754.93l0 -1754.93 0 1754.93z"/>
  </g>
  <path fill="#222020" fill-rule="nonzero" d="M13644.37 2545.81c0,-201.69 -3.44,-370.91 -14.76,-522.3l389.61 0 21.64 262.94 10.45 0c76.01,-137.13 266.87,-302.9 558.83,-302.9 306.34,0 623.39,198.36 623.39,753.25l0 1041.15 -443.35 0 0 -990.85c0,-252.11 -93.71,-442.98 -335.37,-442.98 -176.6,0 -298.96,125.81 -345.82,259.49 -14.26,39.48 -18.2,93.71 -18.2,144.01l0 1030.33 -446.42 0 0 -1232.14z"/>
  <path fill="#222020" fill-rule="nonzero" d="M16194.13 1572.91l0 450.36 421.7 0 0 331.43 -421.7 0 0 774.9c0,212.63 57.67,324.05 226.9,324.05 83.25,0 122.73,-6.88 173.03,-21.27l7.38 338.44c-64.57,25.21 -180.41,46.86 -320.61,46.86 -162.21,0 -299.34,-57.31 -382.23,-147.46 -93.22,-101.09 -136.63,-259.49 -136.63,-490.32l0 -825.2 -251.98 0 0 -331.43 251.98 0 0 -324.05 432.16 -126.31z"/>
  <path fill="#222020" fill-rule="nonzero" d="M17242.17 3025.07c10.82,317.16 259.36,454.16 540.49,454.16 205.26,0 353.2,-29.02 486.39,-79.32l64.57 306.22c-150.9,61.25 -360.09,111.55 -612.08,111.55 -569.27,0 -904.64,-353.2 -904.64,-889.77 0,-486.38 295.52,-944.12 857.79,-944.12 572.6,0 756.57,468.56 756.57,853.86 0,82.88 -7.37,147.94 -14.26,187.42l-1174.83 0zm771.33 -309.79c3.44,-162.21 -68.5,-429.08 -364.02,-429.08 -274.13,0 -389.11,249.04 -407.31,429.08l771.33 0z"/>
  <path fill="#222020" fill-rule="nonzero" d="M18786.8 2589.1c0,-237.72 -3.44,-407.43 -14.39,-565.71l385.3 0 14.76 334.88 14.26 0c86.83,-248.18 292.08,-374.48 479.5,-374.48 42.92,0 68.5,3.57 104.05,10.95l0 417.76c-35.55,-7.38 -75.51,-14.26 -129.63,-14.26 -212.63,0 -356.64,137 -396.12,334.87 -7.37,39.97 -14.38,86.83 -14.38,137.13l0 907.96 -443.35 0 0 -1189.1z"/>
  <path fill="#222020" fill-rule="nonzero" d="M20068.63 2545.81c0,-201.69 -3.45,-370.91 -13.9,-522.3l388.74 0 21.77 262.94 10.82 0c75.51,-137.13 266.38,-302.9 558.33,-302.9 306.35,0 623.51,198.36 623.51,753.25l0 1041.15 -443.46 0 0 -990.85c0,-252.11 -93.72,-442.98 -334.88,-442.98 -176.6,0 -298.97,125.81 -345.82,259.49 -14.27,39.48 -17.71,93.71 -17.71,144.01l0 1030.33 -447.4 0 0 -1232.14z"/>
  <path fill="#222020" fill-rule="nonzero" d="M23490.56 3356.62c0,158.4 7.38,313.23 25.21,421.7l-399.56 0 -29.15 -194.8 -10.82 0c-107.98,137.13 -291.96,234.28 -518.49,234.28 -353.57,0 -551.44,-255.92 -551.44,-522.3 0,-443.47 392.67,-666.92 1041.27,-663.36l0 -28.65c0,-115.48 -46.85,-306.34 -357.01,-306.34 -172.66,0 -353.2,54.23 -471.63,129.74l-86.7 -288.02c130.11,-79.45 356.52,-154.96 634.21,-154.96 561.9,0 724.11,356.65 724.11,738.38l0 634.33zm-432.16 -435.96c-313.6,-7.38 -612.56,61.12 -612.56,327.99 0,172.66 111.91,251.98 252.11,251.98 176.6,0 306.22,-115.35 345.7,-241.16l14.75 -97.65 0 -241.16z"/>
  <path fill="#222020" fill-rule="nonzero" d="M25247.95 3724.09c-93.22,43.41 -277.2,93.71 -497.09,93.71 -548,0 -904.64,-353.08 -904.64,-897.14 0,-526.24 360.58,-936.62 976.59,-936.62 162.33,0 327.98,35.91 428.71,82.39l-78.96 331.93c-72.06,-32.59 -176.6,-68.62 -335.37,-68.62 -338.44,0 -540.25,248.66 -536.68,569.27 0,360.46 234.28,565.71 536.68,565.71 155.21,0 263.31,-32.59 349.64,-68.62l61.12 327.99z"/>
  <g>
   <path fill="#222020" fill-rule="nonzero" d="M26046.83 1533.44c0,133.19 -97.15,237.72 -252.11,237.72 -147.95,0 -244.61,-104.53 -244.61,-237.72 0,-137.13 100.6,-241.29 248.18,-241.29 151.39,0 245.1,104.16 248.54,241.29zm-471.63 489.71l446.42 0 0 1754.93 -446.42 0 0 -1754.93zm0 1754.93l0 -1754.93 0 1754.93z"/>
  </g>
  <path fill="#222020" fill-rule="nonzero" d="M28165.17 2884.5c0,645.16 -453.8,933.18 -900.59,933.18 -497.21,0 -879.43,-342.26 -879.43,-904.03 0,-576.66 378.29,-929.86 908.09,-929.86 522.79,0 871.93,367.59 871.93,900.71zm-1322.29 18.2c0,338.94 165.66,594.37 435.97,594.37 252.11,0 428.71,-248.55 428.71,-601.75 0,-273.75 -122.37,-587.35 -425.27,-587.35 -313.6,0 -439.41,302.78 -439.41,594.73z"/>
  <path fill="#222020" fill-rule="nonzero" d="M28527.96 2545.81c0,-201.69 -3.44,-370.91 -14.26,-522.3l389.11 0 21.64 262.94 10.95 0c75.38,-137.13 266.37,-302.9 558.33,-302.9 305.85,0 623.39,198.36 623.39,753.25l0 1041.15 -443.35 0 0 -990.85c0,-252.11 -93.71,-442.98 -335.37,-442.98 -176.11,0 -298.96,125.81 -345.33,259.49 -14.75,39.48 -18.2,93.71 -18.2,144.01l0 1030.33 -446.91 0 0 -1232.14z"/>
  <path fill="#222020" fill-rule="nonzero" d="M31949.89 3356.62c0,158.4 7.38,313.23 25.09,421.7l-399.56 0 -29.03 -194.8 -10.82 0c-108.1,137.13 -292.08,234.28 -518.98,234.28 -353.07,0 -550.95,-255.92 -550.95,-522.3 0,-443.47 392.68,-666.92 1041.28,-663.36l0 -28.65c0,-115.48 -47.35,-306.34 -357.14,-306.34 -173.03,0 -353.07,54.23 -472,129.74l-86.33 -288.02c129.75,-79.45 356.64,-154.96 634.33,-154.96 562.27,0 724.11,356.65 724.11,738.38l0 634.33zm-432.64 -435.96c-313.23,-7.38 -612.08,61.12 -612.08,327.99 0,172.66 111.42,251.98 251.99,251.98 176.6,0 305.98,-115.35 345.82,-241.16l14.27 -97.65 0 -241.16z"/>
  <polygon fill="#222020" fill-rule="nonzero" points="32417.47,1219.71 32863.88,1219.71 32863.88,3778.08 32417.47,3778.08 "/>
  <path fill="#222020" fill-rule="nonzero" d="M7157.77 5078.35l0 2064.72c0,180.04 7.01,374.47 14.38,493.77l-396.61 0 -17.71 -277.69 -7.38 0c-104.65,194.8 -317.16,317.16 -572.72,317.16 -418.25,0 -749.68,-356.64 -749.68,-897.26 -3.45,-587.36 364.02,-936.62 785.72,-936.62 241.16,0 414.32,100.6 493.27,230.34l7.38 0 0 -994.42 443.35 0zm-443.35 1535.04l-10.82 -115.48c-39.48,-172.66 -180.04,-313.23 -381.86,-313.23 -285.06,0 -442.97,252.11 -442.97,580.1 0,320.61 157.91,554.89 439.53,554.89 180.04,0 338.44,-122.74 381.73,-313.72 10.95,-39.48 14.39,-82.77 14.39,-129.63l0 -262.93z"/>
  <path fill="#222020" fill-rule="nonzero" d="M8994.11 7215.14c0,158.27 7.38,313.23 25.21,421.7l-400.05 0 -28.66 -194.81 -10.82 0c-108.1,137.13 -291.96,234.28 -518.86,234.28 -353.2,0 -551.44,-256.04 -551.44,-522.42 0,-443.34 393.05,-666.8 1041.65,-663.36l0 -28.65c0,-115.36 -46.86,-306.22 -357.02,-306.22 -172.66,0 -353.2,54.23 -472.12,129.74l-86.33 -288.14c129.74,-79.32 356.64,-154.83 634.33,-154.83 561.9,0 724.11,356.64 724.11,738.37l0 634.34zm-432.15 -436.09c-313.6,-7.38 -613.06,61.24 -613.06,327.99 0,172.66 112.03,252.11 252.6,252.11 176.48,0 306.22,-115.36 346.19,-241.29l14.27 -97.53 0 -241.28z"/>
  <path fill="#222020" fill-rule="nonzero" d="M11496.89 7582.6c-93.71,43.41 -277.32,93.71 -497.21,93.71 -547.51,0 -904.16,-353.2 -904.16,-897.14 0,-526.36 360.09,-936.74 976.1,-936.74 162.33,0 327.99,36.03 429.08,82.39l-79.32 331.93c-72.07,-32.47 -176.6,-68.5 -335.37,-68.5 -338.44,0 -540.62,248.54 -536.69,569.15 0,360.58 234.28,565.71 536.69,565.71 155.32,0 263.3,-32.46 349.63,-68.5l61.25 327.99z"/>
  <path fill="#222020" fill-rule="nonzero" d="M13459.78 6743.01c0,645.16 -453.8,933.18 -900.71,933.18 -497.21,0 -879.43,-342.26 -879.43,-904.15 0,-576.54 378.28,-929.74 908.08,-929.74 522.79,0 872.06,367.47 872.06,900.71zm-1322.41 18.2c0,338.45 165.78,594.37 435.96,594.37 252.11,0 428.71,-248.54 428.71,-601.74 0,-273.76 -122.36,-587.48 -425.14,-587.48 -313.72,0 -439.53,302.9 -439.53,594.85z"/>
  <path fill="#222020" fill-rule="nonzero" d="M13822.45 6404.33c0,-201.69 -3.45,-370.91 -14.27,-522.3l389.11 0 21.77 262.93 10.82 0c75.51,-137.12 266.38,-302.9 558.33,-302.9 305.86,0 623.51,198.37 623.51,753.25l0 1041.16 -443.46 0 0 -990.86c0,-252.11 -93.71,-442.97 -335.37,-442.97 -176.11,0 -298.84,125.81 -345.33,259.49 -14.76,39.47 -18.2,93.71 -18.2,144.01l0 1030.33 -446.91 0 0 -1232.14z"/>
  <path fill="#222020" fill-rule="nonzero" d="M15860.73 7229.4c101.09,61.25 291.95,126.3 450.35,126.3 194.31,0 281.13,-79.44 281.13,-194.8 0,-118.92 -72.06,-180.04 -288.14,-256.04 -342.25,-118.43 -486.76,-305.86 -482.82,-511.48 0,-309.79 255.55,-550.95 662.99,-550.95 194.31,0 363.9,50.3 464.62,104.53l-86.34 313.23c-75.51,-43.41 -216.07,-101.09 -371.03,-101.09 -158.76,0 -245.1,75.88 -245.1,183.98 0,111.91 82.89,165.66 306.35,245.1 317.16,114.99 464.62,277.2 468.06,536.69 0,317.16 -248.54,551.44 -713.16,551.44 -212.64,0 -403.5,-54.23 -533.25,-126.3l86.34 -320.61z"/>
  <path fill="#222020" fill-rule="nonzero" d="M18674.03 7582.6c-93.34,43.41 -277.32,93.71 -497.21,93.71 -548,0 -904.65,-353.2 -904.65,-897.14 0,-526.36 360.58,-936.74 976.59,-936.74 162.34,0 327.99,36.03 428.71,82.39l-78.95 331.93c-72.44,-32.47 -176.6,-68.5 -335.37,-68.5 -338.44,0 -540.13,248.54 -536.69,569.15 0,360.58 234.28,565.71 536.69,565.71 155.32,0 262.93,-32.46 349.63,-68.5l61.25 327.99z"/>
  <g>
   <path fill="#222020" fill-rule="nonzero" d="M19472.79 5391.95c0,133.19 -96.79,237.72 -252.11,237.72 -147.95,0 -244.61,-104.53 -244.61,-237.72 0,-137.12 100.6,-241.29 248.17,-241.29 151.76,0 245.1,104.17 248.55,241.29zm-471.63 489.71l446.91 0 0 1754.93 -446.91 0 0 -1754.93zm0 1754.93l0 -1754.93 0 1754.93z"/>
  </g>
  <path fill="#222020" fill-rule="nonzero" d="M20236.49 6883.46c10.46,317.16 259.49,454.29 540.13,454.29 205.63,0 353.57,-29.03 486.76,-79.45l64.69 306.35c-151.02,61.12 -360.09,111.54 -612.2,111.54 -569.64,0 -904.52,-353.2 -904.52,-889.89 0,-486.26 295.4,-944 857.3,-944 573.09,0 756.57,468.56 756.57,853.74 0,82.88 -6.88,147.94 -14.26,187.42l-1174.47 0zm770.97 -309.67c3.93,-162.33 -68.62,-429.08 -364.02,-429.08 -273.76,0 -388.74,249.04 -406.95,429.08l770.97 0z"/>
  <path fill="#222020" fill-rule="nonzero" d="M21780.88 6404.33c0,-201.69 -3.44,-370.91 -13.89,-522.3l388.74 0 21.64 262.93 10.95 0c75.51,-137.12 266.37,-302.9 558.33,-302.9 306.34,0 623.39,198.37 623.39,753.25l0 1041.16 -443.35 0 0 -990.86c0,-252.11 -93.71,-442.97 -334.87,-442.97 -176.6,0 -298.97,125.81 -345.82,259.49 -14.39,39.47 -17.84,93.71 -17.84,144.01l0 1030.33 -447.28 0 0 -1232.14z"/>
  <path fill="#222020" fill-rule="nonzero" d="M24331.13 5431.43l0 450.35 421.7 0 0 331.43 -421.7 0 0 774.9c0,212.64 57.68,324.06 226.9,324.06 82.89,0 122.36,-6.89 173.03,-21.28l7.01 338.44c-64.69,25.21 -180.04,46.86 -320.61,46.86 -162.33,0 -298.96,-57.31 -381.85,-147.45 -93.71,-101.09 -137,-259.49 -137,-490.33l0 -825.2 -252.11 0 0 -331.43 252.11 0 0 -324.05 432.52 -126.3z"/>
  <g>
   <path fill="#222020" fill-rule="nonzero" d="M25558.97 5391.95c0,133.19 -97.16,237.72 -252.11,237.72 -147.95,0 -245.1,-104.53 -245.1,-237.72 0,-137.12 100.72,-241.29 248.66,-241.29 151.39,0 245.1,104.17 248.55,241.29zm-472 489.71l446.79 0 0 1754.93 -446.79 0 0 -1754.93zm0 1754.93l0 -1754.93 0 1754.93z"/>
  </g>
  <path fill="#222020" fill-rule="nonzero" d="M25843.3 7380.79l659.05 -843.03c90.27,-107.98 166.15,-194.68 259.37,-295.4l0 -7.38 -853.73 0 0 -353.2 1394.35 0 0 270.31 -644.67 825.2c-86.82,104.53 -169.71,205.26 -259.48,298.97l0 7.38 925.79 0 0 353.07 -1480.68 0 0 -255.92z"/>
  <path fill="#222020" fill-rule="nonzero" d="M28991.48 7215.14c0,158.27 7.37,313.23 25.08,421.7l-399.93 0 -28.65 -194.81 -10.83 0c-108.1,137.13 -291.95,234.28 -518.85,234.28 -353.2,0 -551.45,-256.04 -551.45,-522.42 0,-443.34 393.05,-666.8 1041.65,-663.36l0 -28.65c0,-115.36 -46.86,-306.22 -357.01,-306.22 -172.79,0 -353.2,54.23 -472.13,129.74l-86.33 -288.14c129.75,-79.32 356.65,-154.83 634.34,-154.83 561.77,0 724.11,356.64 724.11,738.37l0 634.34zm-432.16 -436.09c-313.6,-7.38 -613.06,61.24 -613.06,327.99 0,172.66 112.04,252.11 252.61,252.11 176.47,0 306.22,-115.36 346.19,-241.29l14.26 -97.53 0 -241.28z"/>
  <path fill="#222020" fill-rule="nonzero" d="M30748.87 7582.6c-79.33,39.48 -234.28,86.33 -428.59,90.27l-76 133.19c133.19,28.65 256.04,118.92 256.04,277.19 0,238.22 -205.62,320.61 -403.5,320.61 -97.64,0 -209.19,-21.27 -281.62,-68.13l61.61 -194.8c54.24,32.59 129.75,50.79 198.25,50.79 75.51,0 144.13,-25.58 144.13,-101.09 -3.57,-82.89 -97.28,-122.73 -284.7,-140.56l147.58 -291.96c-450.36,-61.12 -734.94,-396.12 -734.94,-878.94 0,-526.36 360.09,-936.74 976.59,-936.74 161.84,0 327.5,36.03 428.59,82.39l-79.32 331.93c-72.07,-32.47 -176.23,-68.5 -335,-68.5 -338.81,0 -540.5,248.54 -536.69,569.15 0,360.58 234.28,565.71 536.69,565.71 151.39,0 262.93,-32.46 349.75,-68.5l61.13 327.99z"/>
  <path fill="#222020" fill-rule="nonzero" d="M32437.76 7215.14c0,158.27 7.38,313.23 25.58,421.7l-400.06 0 -29.02 -194.81 -10.82 0c-108.1,137.13 -292.08,234.28 -518.98,234.28 -353.08,0 -550.95,-256.04 -550.95,-522.42 0,-443.34 392.67,-666.8 1041.27,-663.36l0 -28.65c0,-115.36 -47.35,-306.22 -357.13,-306.22 -172.67,0 -353.08,54.23 -471.51,129.74l-86.83 -288.14c129.75,-79.32 356.65,-154.83 634.34,-154.83 562.26,0 724.11,356.64 724.11,738.37l0 634.34zm-1192.67 -1603.55c-7.38,-273.75 104.54,-428.58 274.13,-428.58 86.33,0 154.46,35.91 230.46,75.38 57.68,32.59 107.98,65.18 151.39,65.18 57.68,0 86.33,-32.59 97.15,-154.95l212.64 0c10.82,288.14 -90.27,417.76 -270.31,417.76 -90.27,0 -162.34,-35.91 -237.72,-75.88 -68.63,-39.47 -100.73,-61.12 -144.51,-61.12 -53.86,0 -86.33,57.68 -89.77,162.21l-223.46 0zm760.51 1167.46c-313.72,-7.38 -612.56,61.24 -612.56,327.99 0,172.66 111.42,252.11 251.98,252.11 176.6,0 305.98,-115.36 345.83,-241.29l14.75 -97.53 0 -241.28z"/>
  <path fill="#222020" fill-rule="nonzero" d="M34573.44 6743.01c0,645.16 -453.8,933.18 -900.59,933.18 -497.21,0 -879.43,-342.26 -879.43,-904.15 0,-576.54 378.28,-929.74 907.96,-929.74 522.79,0 872.06,367.47 872.06,900.71zm-1322.29 18.2c0,338.45 165.65,594.37 435.97,594.37 252.11,0 428.58,-248.54 428.58,-601.74 0,-273.76 -122.24,-587.48 -425.14,-587.48 -313.6,0 -439.41,302.9 -439.41,594.85z"/>
  <path fill="#222020" fill-rule="nonzero" d="M9893.59 11087.91c101.09,61.25 292.08,126.3 450.35,126.3 194.44,0 281.14,-79.44 281.14,-194.8 0,-118.92 -71.95,-180.04 -288.02,-256.04 -342.38,-118.43 -486.76,-305.85 -482.95,-511.48 0,-309.79 255.56,-550.95 662.5,-550.95 194.8,0 364.51,50.3 465.11,104.53l-86.7 313.23c-75.14,-43.41 -215.71,-101.09 -370.54,-101.09 -158.77,0 -245.1,75.88 -245.1,183.98 0,111.92 82.77,165.66 306.22,245.1 317.17,114.99 464.62,277.2 468.19,536.69 0,317.17 -248.67,551.45 -713.29,551.45 -212.63,0 -403.5,-54.24 -533.24,-126.31l86.33 -320.61z"/>
  <path fill="#222020" fill-rule="nonzero" d="M13085.18 10601.4c0,645.16 -453.8,933.3 -900.71,933.3 -497.09,0 -879.31,-342.38 -879.31,-904.15 0,-576.66 378.29,-929.73 907.96,-929.73 522.79,0 872.06,367.46 872.06,900.58zm-1322.41 18.33c0,338.81 165.78,594.36 436.09,594.36 252.48,0 428.59,-248.66 428.59,-601.74 0,-273.76 -122.25,-587.48 -425.15,-587.48 -313.23,0 -439.53,302.78 -439.53,594.86z"/>
  <path fill="#222020" fill-rule="nonzero" d="M13447.85 8936.86l443.47 0 0 1044.72 7.38 0c107.97,-169.22 298.84,-280.76 562.26,-280.76 428.22,0 734.93,356.64 731,889.88 0,630.77 -400.06,944 -796.05,944 -226.9,0 -429.08,-86.33 -554.89,-302.78l-7.38 0 -21.28 263.31 -378.41 0c7.01,-118.8 13.9,-313.6 13.9,-493.65l0 -2064.72zm443.47 1833.89l10.82 104.53c46.85,176.6 201.69,309.79 392.68,309.79 277.56,0 446.78,-223.46 446.78,-576.16 0,-310.16 -147.45,-562.27 -442.97,-562.27 -180.41,0 -342.75,129.74 -393.05,324.05 -6.88,32.59 -14.26,72.07 -14.26,115.48l0 284.58z"/>
  <path fill="#222020" fill-rule="nonzero" d="M15554.75 10306c0,-237.72 -3.44,-407.31 -14.27,-565.71l385.3 0 14.76 335.37 14.27 0c86.7,-248.54 291.95,-374.84 479.37,-374.84 42.92,0 68.63,3.44 104.17,10.82l0 417.89c-35.54,-7.01 -75.51,-14.39 -129.75,-14.39 -212.63,0 -356.64,137.12 -396.12,335 -7.37,39.84 -14.26,86.7 -14.26,137l0 908.09 -443.47 0 0 -1189.23z"/>
  <path fill="#222020" fill-rule="nonzero" d="M17118.08 10741.97c10.33,317.17 259.36,454.29 540.13,454.29 205.62,0 353.57,-29.02 486.76,-79.45l64.56 306.35c-150.9,61.12 -360.09,111.54 -612.07,111.54 -569.65,0 -904.65,-353.2 -904.65,-889.88 0,-486.27 295.52,-944 857.3,-944 573.09,0 756.7,468.55 756.7,853.73 0,82.89 -7.01,147.94 -14.39,187.42l-1174.34 0zm770.84 -309.66c3.94,-162.34 -68.5,-429.08 -363.9,-429.08 -273.75,0 -388.74,249.03 -406.94,429.08l770.84 0z"/>
  <path fill="#222020" fill-rule="nonzero" d="M21076.45 10601.4c0,645.16 -454.17,933.3 -900.58,933.3 -497.71,0 -879.44,-342.38 -879.44,-904.15 0,-576.66 378.29,-929.73 908.09,-929.73 522.3,0 871.93,367.46 871.93,900.58zm-1322.78 18.33c0,338.81 166.15,594.36 436.46,594.36 252.11,0 428.71,-248.66 428.71,-601.74 0,-273.76 -122.86,-587.48 -425.27,-587.48 -313.6,0 -439.9,302.78 -439.9,594.86z"/>
  <path fill="#222020" fill-rule="nonzero" d="M22184.51 10306c0,-237.72 -3.45,-407.31 -14.27,-565.71l385.3 0 14.76 335.37 14.26 0c86.83,-248.54 291.96,-374.84 479.38,-374.84 42.92,0 68.62,3.44 104.16,10.82l0 417.89c-35.54,-7.01 -75.51,-14.39 -129.74,-14.39 -212.63,0 -356.64,137.12 -396.12,335 -7.38,39.84 -14.27,86.7 -14.27,137l0 908.09 -443.46 0 0 -1189.23z"/>
  <path fill="#222020" fill-rule="nonzero" d="M25037.41 10969.11c0,208.7 7.38,381.86 14.75,525.87l-389.11 0 -21.76 -266.38 -7.38 0c-75.39,125.81 -248.55,306.23 -562.27,306.23 -320.61,0 -612.07,-190.87 -612.07,-763.96l0 -1030.33 442.97 0 0 954.82c0,291.59 93.71,479.01 327.99,479.01 176.48,0 291.96,-125.81 338.81,-237.72 14.27,-39.48 25.09,-86.33 25.09,-137.13l0 -1058.98 442.98 0 0 1228.57z"/>
  <path fill="#222020" fill-rule="nonzero" d="M25515.8 9740.54l446.42 0 0 1754.81 -446.42 0 0 -1754.81zm0 1754.44zm763.59 -2515.07l-442.98 533.73 -306.22 0 313.23 -533.73 435.97 0z"/>
  <path fill="#222020" fill-rule="nonzero" d="M28055.47 8936.86l0 2064.72c0,180.05 6.89,374.85 14.76,493.65l-396.61 0 -18.2 -277.57 -7.38 0c-104.05,194.8 -316.68,317.04 -572.6,317.04 -418.26,0 -749.69,-356.52 -749.69,-897.14 -3.57,-587.48 363.9,-936.74 785.6,-936.74 241.29,0 414.44,100.72 493.77,230.46l7.37 0 0 -994.42 442.98 0zm-442.98 1534.92l-11.31 -115.35c-39.48,-172.67 -179.55,-313.24 -381.73,-313.24 -284.58,0 -442.98,252.11 -442.98,580.1 0,320.61 158.4,554.89 439.54,554.89 180.04,0 338.32,-122.86 381.73,-313.72 10.82,-39.48 14.75,-82.89 14.75,-129.75l0 -262.93z"/>
  <path fill="#222020" fill-rule="nonzero" d="M30198.16 10601.4c0,645.16 -454.17,933.3 -900.59,933.3 -497.7,0 -879.43,-342.38 -879.43,-904.15 0,-576.66 378.29,-929.73 907.96,-929.73 522.43,0 872.06,367.46 872.06,900.58zm-1322.29 18.33c0,338.81 165.66,594.36 435.97,594.36 252.48,0 428.59,-248.66 428.59,-601.74 0,-273.76 -122.25,-587.48 -425.15,-587.48 -313.23,0 -439.41,302.78 -439.41,594.86z"/>
  <g>
   <path fill="#222020" fill-rule="nonzero" d="M31736.52 20418.69c1817.9,0.86 3450.47,-546.28 4590.99,-1385.74 1145.44,-845.99 1775.84,-1933.26 1774.97,-3083.74 0.87,-1151.1 -629.53,-2238.25 -1774.97,-3084.23 -1140.52,-839.59 -2773.09,-1386.6 -4590.99,-1385.74l0 -1542.79c2124.12,0.86 4060.82,626.95 5503.87,1684.22 1438.13,1051.23 2405.62,2584.43 2405.62,4328.54 0,1743.62 -967.49,3276.81 -2405.62,4328.05 -1443.05,1057.26 -3379.75,1683.24 -5503.87,1684.1l0 -1542.67z"/>
   <path fill="#222020" fill-rule="nonzero" d="M2759.74 20277.26c-1438.26,-1051.24 -2405.75,-2584.06 -2405.75,-4328.05 0,-1743.74 967.49,-3277.31 2405.75,-4328.54 1442.93,-1057.76 3380.12,-1682.87 5503.74,-1684.59l0 1543.53c-1817.77,-1.72 -3450.34,546.28 -4590.49,1385.74 -1145.44,845.98 -1775.71,1932.39 -1775.71,3083.86 0,1150.97 630.27,2237.75 1775.71,3084.1 1140.15,838.73 2772.72,1386.61 4590.49,1384.89l0 0.49 0 1543.16c-2123.62,-1.72 -4060.81,-627.33 -5503.74,-1684.59z"/>
  </g>
 </g>
</svg>
